<?xml version="1.0" encoding="UTF-8" standalone="no"?>
<!DOCTYPE svg PUBLIC "-//W3C//DTD SVG 1.1//EN"
 "http://www.w3.org/Graphics/SVG/1.1/DTD/svg11.dtd">
<!-- Generated by graphviz version 2.40.1 (20161225.0304)
 -->
<!-- Title: dependencies Pages: 1 -->
<svg width="2352pt" height="284pt"
 viewBox="0.00 0.00 2352.00 284.00" xmlns="http://www.w3.org/2000/svg" xmlns:xlink="http://www.w3.org/1999/xlink">
<g id="graph0" class="graph" transform="scale(1 1) rotate(0) translate(4 280)">
<title>dependencies</title>
<polygon fill="#ffffff" stroke="transparent" points="-4,4 -4,-280 2348,-280 2348,4 -4,4"/>
<text text-anchor="start" x="1151.0091" y="-42.4" font-family="sans-serif" font-weight="bold" font-size="14.00" fill="#000000">Legend</text>
<polygon fill="#ffffb3" stroke="transparent" points="938,-10 938,-30 958,-30 958,-10 938,-10"/>
<text text-anchor="start" x="961.629" y="-15.4" font-family="sans-serif" font-size="14.00" fill="#000000"> &#160;Declarations</text>
<polygon fill="#8dd3c7" stroke="transparent" points="1051,-10 1051,-30 1071,-30 1071,-10 1051,-10"/>
<text text-anchor="start" x="1074.7251" y="-15.4" font-family="sans-serif" font-size="14.00" fill="#000000"> &#160;Module</text>
<polygon fill="#80b1d3" stroke="transparent" points="1137,-10 1137,-30 1157,-30 1157,-10 1137,-10"/>
<text text-anchor="start" x="1160.7812" y="-15.4" font-family="sans-serif" font-size="14.00" fill="#000000"> &#160;Bootstrap</text>
<polygon fill="#fdb462" stroke="transparent" points="1234,-10 1234,-30 1254,-30 1254,-10 1234,-10"/>
<text text-anchor="start" x="1257.6732" y="-15.4" font-family="sans-serif" font-size="14.00" fill="#000000"> &#160;Providers</text>
<polygon fill="#fb8072" stroke="transparent" points="1330,-10 1330,-30 1350,-30 1350,-10 1330,-10"/>
<text text-anchor="start" x="1353.7258" y="-15.4" font-family="sans-serif" font-size="14.00" fill="#000000"> &#160;Exports</text>
<g id="clust1" class="cluster">
<title>cluster_ComponentsModule</title>
<polygon fill="none" stroke="#000000" stroke-dasharray="1,5" points="8,-70 8,-268 2336,-268 2336,-70 8,-70"/>
</g>
<g id="clust2" class="cluster">
<title>cluster_ComponentsModule_declarations</title>
<polygon fill="none" stroke="#000000" points="42,-78 42,-130 2311,-130 2311,-78 42,-78"/>
</g>
<g id="clust16" class="cluster">
<title>cluster_ComponentsModule_exports</title>
<polygon fill="none" stroke="#000000" points="16,-208 16,-260 2328,-260 2328,-208 16,-208"/>
</g>
<!-- DownloadStudentComponent -->
<g id="node1" class="node">
<title>DownloadStudentComponent</title>
<polygon fill="#ffffb3" stroke="#000000" points="2303.4297,-122 2120.5703,-122 2120.5703,-86 2303.4297,-86 2303.4297,-122"/>
<text text-anchor="middle" x="2212" y="-99.8" font-family="Times,serif" font-size="14.00" fill="#000000">DownloadStudentComponent</text>
</g>
<!-- ComponentsModule -->
<g id="node13" class="node">
<title>ComponentsModule</title>
<polygon fill="#8dd3c7" stroke="#000000" points="1086.3272,-187 1083.3272,-191 1062.3272,-191 1059.3272,-187 955.6728,-187 955.6728,-151 1086.3272,-151 1086.3272,-187"/>
<text text-anchor="middle" x="1021" y="-164.8" font-family="Times,serif" font-size="14.00" fill="#000000">ComponentsModule</text>
</g>
<!-- DownloadStudentComponent&#45;&gt;ComponentsModule -->
<g id="edge1" class="edge">
<title>DownloadStudentComponent&#45;&gt;ComponentsModule</title>
<path fill="none" stroke="#000000" d="M2127.4104,-122.1686C2127.4104,-141.0898 2127.4104,-168 2127.4104,-168 2127.4104,-168 1096.4884,-168 1096.4884,-168"/>
<polygon fill="#000000" stroke="#000000" points="1096.4885,-164.5001 1086.4884,-168 1096.4884,-171.5001 1096.4885,-164.5001"/>
</g>
<!-- EditProfileFormComponent -->
<g id="node2" class="node">
<title>EditProfileFormComponent</title>
<polygon fill="#ffffb3" stroke="#000000" points="2102.5996,-122 1929.4004,-122 1929.4004,-86 2102.5996,-86 2102.5996,-122"/>
<text text-anchor="middle" x="2016" y="-99.8" font-family="Times,serif" font-size="14.00" fill="#000000">EditProfileFormComponent</text>
</g>
<!-- EditProfileFormComponent&#45;&gt;ComponentsModule -->
<g id="edge2" class="edge">
<title>EditProfileFormComponent&#45;&gt;ComponentsModule</title>
<path fill="none" stroke="#000000" d="M1934.5752,-122.302C1934.5752,-140.2699 1934.5752,-165 1934.5752,-165 1934.5752,-165 1096.3354,-165 1096.3354,-165"/>
<polygon fill="#000000" stroke="#000000" points="1096.3355,-161.5001 1086.3354,-165 1096.3354,-168.5001 1096.3355,-161.5001"/>
</g>
<!-- LastChannelMessageComponent -->
<g id="node3" class="node">
<title>LastChannelMessageComponent</title>
<polygon fill="#ffffb3" stroke="#000000" points="1911.5688,-122 1710.4312,-122 1710.4312,-86 1911.5688,-86 1911.5688,-122"/>
<text text-anchor="middle" x="1811" y="-99.8" font-family="Times,serif" font-size="14.00" fill="#000000">LastChannelMessageComponent</text>
</g>
<!-- LastChannelMessageComponent&#45;&gt;ComponentsModule -->
<g id="edge3" class="edge">
<title>LastChannelMessageComponent&#45;&gt;ComponentsModule</title>
<path fill="none" stroke="#000000" d="M1846.5948,-122.0225C1846.5948,-139.3734 1846.5948,-163 1846.5948,-163 1846.5948,-163 1096.4731,-163 1096.4731,-163"/>
<polygon fill="#000000" stroke="#000000" points="1096.4732,-159.5001 1086.4731,-163 1096.4731,-166.5001 1096.4732,-159.5001"/>
</g>
<!-- LastMessageListComponent -->
<g id="node4" class="node">
<title>LastMessageListComponent</title>
<polygon fill="#ffffb3" stroke="#000000" points="1692.1909,-122 1515.8091,-122 1515.8091,-86 1692.1909,-86 1692.1909,-122"/>
<text text-anchor="middle" x="1604" y="-99.8" font-family="Times,serif" font-size="14.00" fill="#000000">LastMessageListComponent</text>
</g>
<!-- LastMessageListComponent&#45;&gt;ComponentsModule -->
<g id="edge4" class="edge">
<title>LastMessageListComponent&#45;&gt;ComponentsModule</title>
<path fill="none" stroke="#000000" d="M1634.4485,-122.027C1634.4485,-138.3976 1634.4485,-160 1634.4485,-160 1634.4485,-160 1096.3591,-160 1096.3591,-160"/>
<polygon fill="#000000" stroke="#000000" points="1096.3591,-156.5001 1086.3591,-160 1096.3591,-163.5001 1096.3591,-156.5001"/>
</g>
<!-- LastRateProfessorComponent -->
<g id="node5" class="node">
<title>LastRateProfessorComponent</title>
<polygon fill="#ffffb3" stroke="#000000" points="1497.9594,-122 1314.0406,-122 1314.0406,-86 1497.9594,-86 1497.9594,-122"/>
<text text-anchor="middle" x="1406" y="-99.8" font-family="Times,serif" font-size="14.00" fill="#000000">LastRateProfessorComponent</text>
</g>
<!-- LastRateProfessorComponent&#45;&gt;ComponentsModule -->
<g id="edge5" class="edge">
<title>LastRateProfessorComponent&#45;&gt;ComponentsModule</title>
<path fill="none" stroke="#000000" d="M1436.6599,-122.2396C1436.6599,-137.5706 1436.6599,-157 1436.6599,-157 1436.6599,-157 1096.4041,-157 1096.4041,-157"/>
<polygon fill="#000000" stroke="#000000" points="1096.4041,-153.5001 1086.4041,-157 1096.4041,-160.5001 1096.4041,-153.5001"/>
</g>
<!-- LastUploadMaterialComponent -->
<g id="node6" class="node">
<title>LastUploadMaterialComponent</title>
<polygon fill="#ffffb3" stroke="#000000" points="1296.0674,-122 1101.9326,-122 1101.9326,-86 1296.0674,-86 1296.0674,-122"/>
<text text-anchor="middle" x="1199" y="-99.8" font-family="Times,serif" font-size="14.00" fill="#000000">LastUploadMaterialComponent</text>
</g>
<!-- LastUploadMaterialComponent&#45;&gt;ComponentsModule -->
<g id="edge6" class="edge">
<title>LastUploadMaterialComponent&#45;&gt;ComponentsModule</title>
<path fill="none" stroke="#000000" d="M1166.2388,-122.0511C1166.2388,-136.373 1166.2388,-154 1166.2388,-154 1166.2388,-154 1096.3964,-154 1096.3964,-154"/>
<polygon fill="#000000" stroke="#000000" points="1096.3965,-150.5001 1086.3964,-154 1096.3964,-157.5001 1096.3965,-150.5001"/>
</g>
<!-- LoginFormComponent -->
<g id="node7" class="node">
<title>LoginFormComponent</title>
<polygon fill="#ffffb3" stroke="#000000" points="1083.6094,-122 938.3906,-122 938.3906,-86 1083.6094,-86 1083.6094,-122"/>
<text text-anchor="middle" x="1011" y="-99.8" font-family="Times,serif" font-size="14.00" fill="#000000">LoginFormComponent</text>
</g>
<!-- LoginFormComponent&#45;&gt;ComponentsModule -->
<g id="edge7" class="edge">
<title>LoginFormComponent&#45;&gt;ComponentsModule</title>
<path fill="none" stroke="#000000" d="M1019.6957,-122.1061C1019.6957,-122.1061 1019.6957,-140.991 1019.6957,-140.991"/>
<polygon fill="#000000" stroke="#000000" points="1016.1957,-140.9909 1019.6957,-150.991 1023.1957,-140.991 1016.1957,-140.9909"/>
</g>
<!-- OnlineUsersComponent -->
<g id="node8" class="node">
<title>OnlineUsersComponent</title>
<polygon fill="#ffffb3" stroke="#000000" points="920.8061,-122 769.1939,-122 769.1939,-86 920.8061,-86 920.8061,-122"/>
<text text-anchor="middle" x="845" y="-99.8" font-family="Times,serif" font-size="14.00" fill="#000000">OnlineUsersComponent</text>
</g>
<!-- OnlineUsersComponent&#45;&gt;ComponentsModule -->
<g id="edge8" class="edge">
<title>OnlineUsersComponent&#45;&gt;ComponentsModule</title>
<path fill="none" stroke="#000000" d="M916.5279,-122.1243C916.5279,-136.7832 916.5279,-155 916.5279,-155 916.5279,-155 945.7267,-155 945.7267,-155"/>
<polygon fill="#000000" stroke="#000000" points="945.7267,-158.5001 955.7267,-155 945.7267,-151.5001 945.7267,-158.5001"/>
</g>
<!-- ProfileSearchComponent -->
<g id="node9" class="node">
<title>ProfileSearchComponent</title>
<polygon fill="#ffffb3" stroke="#000000" points="751.5197,-122 594.4803,-122 594.4803,-86 751.5197,-86 751.5197,-122"/>
<text text-anchor="middle" x="673" y="-99.8" font-family="Times,serif" font-size="14.00" fill="#000000">ProfileSearchComponent</text>
</g>
<!-- ProfileSearchComponent&#45;&gt;ComponentsModule -->
<g id="edge9" class="edge">
<title>ProfileSearchComponent&#45;&gt;ComponentsModule</title>
<path fill="none" stroke="#000000" d="M745.6345,-122.2819C745.6345,-137.9478 745.6345,-158 745.6345,-158 745.6345,-158 945.7422,-158 945.7422,-158"/>
<polygon fill="#000000" stroke="#000000" points="945.7423,-161.5001 955.7422,-158 945.7422,-154.5001 945.7423,-161.5001"/>
</g>
<!-- ProfileViewComponent -->
<g id="node10" class="node">
<title>ProfileViewComponent</title>
<polygon fill="#ffffb3" stroke="#000000" points="575.7506,-122 426.2494,-122 426.2494,-86 575.7506,-86 575.7506,-122"/>
<text text-anchor="middle" x="501" y="-99.8" font-family="Times,serif" font-size="14.00" fill="#000000">ProfileViewComponent</text>
</g>
<!-- ProfileViewComponent&#45;&gt;ComponentsModule -->
<g id="edge10" class="edge">
<title>ProfileViewComponent&#45;&gt;ComponentsModule</title>
<path fill="none" stroke="#000000" d="M568.2502,-122.0352C568.2502,-138.7344 568.2502,-161 568.2502,-161 568.2502,-161 945.6498,-161 945.6498,-161"/>
<polygon fill="#000000" stroke="#000000" points="945.6499,-164.5001 955.6498,-161 945.6498,-157.5001 945.6499,-164.5001"/>
</g>
<!-- RegisterFormComponent -->
<g id="node11" class="node">
<title>RegisterFormComponent</title>
<polygon fill="#ffffb3" stroke="#000000" points="408.3187,-122 249.6813,-122 249.6813,-86 408.3187,-86 408.3187,-122"/>
<text text-anchor="middle" x="329" y="-99.8" font-family="Times,serif" font-size="14.00" fill="#000000">RegisterFormComponent</text>
</g>
<!-- RegisterFormComponent&#45;&gt;ComponentsModule -->
<g id="edge11" class="edge">
<title>RegisterFormComponent&#45;&gt;ComponentsModule</title>
<path fill="none" stroke="#000000" d="M398.142,-122.302C398.142,-140.2699 398.142,-165 398.142,-165 398.142,-165 945.8135,-165 945.8135,-165"/>
<polygon fill="#000000" stroke="#000000" points="945.8135,-168.5001 955.8135,-165 945.8135,-161.5001 945.8135,-168.5001"/>
</g>
<!-- SendMessageBoxComponent -->
<g id="node12" class="node">
<title>SendMessageBoxComponent</title>
<polygon fill="#ffffb3" stroke="#000000" points="231.6441,-122 50.3559,-122 50.3559,-86 231.6441,-86 231.6441,-122"/>
<text text-anchor="middle" x="141" y="-99.8" font-family="Times,serif" font-size="14.00" fill="#000000">SendMessageBoxComponent</text>
</g>
<!-- SendMessageBoxComponent&#45;&gt;ComponentsModule -->
<g id="edge12" class="edge">
<title>SendMessageBoxComponent&#45;&gt;ComponentsModule</title>
<path fill="none" stroke="#000000" d="M218.3314,-122.1686C218.3314,-141.0898 218.3314,-168 218.3313,-168 218.3313,-168 945.6546,-168 945.6546,-168"/>
<polygon fill="#000000" stroke="#000000" points="945.6546,-171.5001 955.6546,-168 945.6545,-164.5001 945.6546,-171.5001"/>
</g>
<!-- DownloadStudentComponent  -->
<g id="node14" class="node">
<title>DownloadStudentComponent </title>
<polygon fill="#fb8072" stroke="#000000" points="2319.9292,-252 2134.0708,-252 2134.0708,-216 2319.9292,-216 2319.9292,-252"/>
<text text-anchor="middle" x="2227" y="-229.8" font-family="Times,serif" font-size="14.00" fill="#000000">DownloadStudentComponent </text>
</g>
<!-- ComponentsModule&#45;&gt;DownloadStudentComponent  -->
<g id="edge13" class="edge">
<title>ComponentsModule&#45;&gt;DownloadStudentComponent </title>
<path fill="none" stroke="#000000" stroke-dasharray="5,2" d="M1086.24,-171C1336.1576,-171 2218.625,-171 2218.625,-171 2218.625,-171 2218.625,-205.7778 2218.625,-205.7778"/>
<polygon fill="#000000" stroke="#000000" points="2215.1251,-205.7778 2218.625,-215.7778 2222.1251,-205.7778 2215.1251,-205.7778"/>
</g>
<!-- EditProfileFormComponent  -->
<g id="node15" class="node">
<title>EditProfileFormComponent </title>
<polygon fill="#fb8072" stroke="#000000" points="2116.1001,-252 1939.8999,-252 1939.8999,-216 2116.1001,-216 2116.1001,-252"/>
<text text-anchor="middle" x="2028" y="-229.8" font-family="Times,serif" font-size="14.00" fill="#000000">EditProfileFormComponent </text>
</g>
<!-- ComponentsModule&#45;&gt;EditProfileFormComponent  -->
<g id="edge14" class="edge">
<title>ComponentsModule&#45;&gt;EditProfileFormComponent </title>
<path fill="none" stroke="#000000" stroke-dasharray="5,2" d="M1086.2352,-174C1308.2976,-174 2021.125,-174 2021.125,-174 2021.125,-174 2021.125,-205.998 2021.125,-205.998"/>
<polygon fill="#000000" stroke="#000000" points="2017.6251,-205.998 2021.125,-215.998 2024.6251,-205.9981 2017.6251,-205.998"/>
</g>
<!-- LastChannelMessageComponent  -->
<g id="node16" class="node">
<title>LastChannelMessageComponent </title>
<polygon fill="#fb8072" stroke="#000000" points="1921.0693,-252 1716.9307,-252 1716.9307,-216 1921.0693,-216 1921.0693,-252"/>
<text text-anchor="middle" x="1819" y="-229.8" font-family="Times,serif" font-size="14.00" fill="#000000">LastChannelMessageComponent </text>
</g>
<!-- ComponentsModule&#45;&gt;LastChannelMessageComponent  -->
<g id="edge15" class="edge">
<title>ComponentsModule&#45;&gt;LastChannelMessageComponent </title>
<path fill="none" stroke="#000000" stroke-dasharray="5,2" d="M1086.1819,-176C1270.4099,-176 1781.6552,-176 1781.6552,-176 1781.6552,-176 1781.6552,-205.9664 1781.6552,-205.9664"/>
<polygon fill="#000000" stroke="#000000" points="1778.1553,-205.9663 1781.6552,-215.9664 1785.1553,-205.9664 1778.1553,-205.9663"/>
</g>
<!-- LastMessageListComponent  -->
<g id="node17" class="node">
<title>LastMessageListComponent </title>
<polygon fill="#fb8072" stroke="#000000" points="1698.6911,-252 1519.3089,-252 1519.3089,-216 1698.6911,-216 1698.6911,-252"/>
<text text-anchor="middle" x="1609" y="-229.8" font-family="Times,serif" font-size="14.00" fill="#000000">LastMessageListComponent </text>
</g>
<!-- ComponentsModule&#45;&gt;LastMessageListComponent  -->
<g id="edge16" class="edge">
<title>ComponentsModule&#45;&gt;LastMessageListComponent </title>
<path fill="none" stroke="#000000" stroke-dasharray="5,2" d="M1086.3919,-179C1233.3135,-179 1576.8015,-179 1576.8015,-179 1576.8015,-179 1576.8015,-205.9909 1576.8015,-205.9909"/>
<polygon fill="#000000" stroke="#000000" points="1573.3016,-205.9909 1576.8015,-215.9909 1580.3016,-205.991 1573.3016,-205.9909"/>
</g>
<!-- LastRateProfessorComponent  -->
<g id="node18" class="node">
<title>LastRateProfessorComponent </title>
<polygon fill="#fb8072" stroke="#000000" points="1500.96,-252 1313.04,-252 1313.04,-216 1500.96,-216 1500.96,-252"/>
<text text-anchor="middle" x="1407" y="-229.8" font-family="Times,serif" font-size="14.00" fill="#000000">LastRateProfessorComponent </text>
</g>
<!-- ComponentsModule&#45;&gt;LastRateProfessorComponent  -->
<g id="edge17" class="edge">
<title>ComponentsModule&#45;&gt;LastRateProfessorComponent </title>
<path fill="none" stroke="#000000" stroke-dasharray="5,2" d="M1086.4044,-182C1188.7889,-182 1375.3401,-182 1375.3401,-182 1375.3401,-182 1375.3401,-205.8129 1375.3401,-205.8129"/>
<polygon fill="#000000" stroke="#000000" points="1371.8402,-205.8129 1375.3401,-215.8129 1378.8402,-205.813 1371.8402,-205.8129"/>
</g>
<!-- LastUploadMaterialComponent  -->
<g id="node19" class="node">
<title>LastUploadMaterialComponent </title>
<polygon fill="#fb8072" stroke="#000000" points="1294.5679,-252 1097.4321,-252 1097.4321,-216 1294.5679,-216 1294.5679,-252"/>
<text text-anchor="middle" x="1196" y="-229.8" font-family="Times,serif" font-size="14.00" fill="#000000">LastUploadMaterialComponent </text>
</g>
<!-- ComponentsModule&#45;&gt;LastUploadMaterialComponent  -->
<g id="edge18" class="edge">
<title>ComponentsModule&#45;&gt;LastUploadMaterialComponent </title>
<path fill="none" stroke="#000000" stroke-dasharray="5,2" d="M1086.4289,-185C1147.9019,-185 1230.5112,-185 1230.5112,-185 1230.5112,-185 1230.5112,-205.7542 1230.5112,-205.7542"/>
<polygon fill="#000000" stroke="#000000" points="1227.0113,-205.7542 1230.5112,-215.7542 1234.0113,-205.7542 1227.0113,-205.7542"/>
</g>
<!-- LoginFormComponent  -->
<g id="node20" class="node">
<title>LoginFormComponent </title>
<polygon fill="#fb8072" stroke="#000000" points="1079.1099,-252 930.8901,-252 930.8901,-216 1079.1099,-216 1079.1099,-252"/>
<text text-anchor="middle" x="1005" y="-229.8" font-family="Times,serif" font-size="14.00" fill="#000000">LoginFormComponent </text>
</g>
<!-- ComponentsModule&#45;&gt;LoginFormComponent  -->
<g id="edge19" class="edge">
<title>ComponentsModule&#45;&gt;LoginFormComponent </title>
<path fill="none" stroke="#000000" stroke-dasharray="5,2" d="M1017.5707,-187.1061C1017.5707,-187.1061 1017.5707,-205.991 1017.5707,-205.991"/>
<polygon fill="#000000" stroke="#000000" points="1014.0707,-205.9909 1017.5707,-215.991 1021.0707,-205.991 1014.0707,-205.9909"/>
</g>
<!-- OnlineUsersComponent  -->
<g id="node21" class="node">
<title>OnlineUsersComponent </title>
<polygon fill="#fb8072" stroke="#000000" points="912.3059,-252 757.6941,-252 757.6941,-216 912.3059,-216 912.3059,-252"/>
<text text-anchor="middle" x="835" y="-229.8" font-family="Times,serif" font-size="14.00" fill="#000000">OnlineUsersComponent </text>
</g>
<!-- ComponentsModule&#45;&gt;OnlineUsersComponent  -->
<g id="edge20" class="edge">
<title>ComponentsModule&#45;&gt;OnlineUsersComponent </title>
<path fill="none" stroke="#000000" stroke-dasharray="5,2" d="M955.7161,-184C904.1674,-184 840.875,-184 840.875,-184 840.875,-184 840.875,-205.9489 840.875,-205.9489"/>
<polygon fill="#000000" stroke="#000000" points="837.3751,-205.9488 840.875,-215.9489 844.3751,-205.9489 837.3751,-205.9488"/>
</g>
<!-- ProfileSearchComponent  -->
<g id="node22" class="node">
<title>ProfileSearchComponent </title>
<polygon fill="#fb8072" stroke="#000000" points="739.519,-252 578.481,-252 578.481,-216 739.519,-216 739.519,-252"/>
<text text-anchor="middle" x="659" y="-229.8" font-family="Times,serif" font-size="14.00" fill="#000000">ProfileSearchComponent </text>
</g>
<!-- ComponentsModule&#45;&gt;ProfileSearchComponent  -->
<g id="edge21" class="edge">
<title>ComponentsModule&#45;&gt;ProfileSearchComponent </title>
<path fill="none" stroke="#000000" stroke-dasharray="5,2" d="M955.6353,-181C853.3129,-181 666.875,-181 666.875,-181 666.875,-181 666.875,-205.7604 666.875,-205.7604"/>
<polygon fill="#000000" stroke="#000000" points="663.3751,-205.7604 666.875,-215.7604 670.3751,-205.7604 663.3751,-205.7604"/>
</g>
<!-- ProfileViewComponent  -->
<g id="node23" class="node">
<title>ProfileViewComponent </title>
<polygon fill="#fb8072" stroke="#000000" points="560.7506,-252 407.2494,-252 407.2494,-216 560.7506,-216 560.7506,-252"/>
<text text-anchor="middle" x="484" y="-229.8" font-family="Times,serif" font-size="14.00" fill="#000000">ProfileViewComponent </text>
</g>
<!-- ComponentsModule&#45;&gt;ProfileViewComponent  -->
<g id="edge22" class="edge">
<title>ComponentsModule&#45;&gt;ProfileViewComponent </title>
<path fill="none" stroke="#000000" stroke-dasharray="5,2" d="M955.7736,-178C814.6072,-178 493.375,-178 493.375,-178 493.375,-178 493.375,-205.973 493.375,-205.973"/>
<polygon fill="#000000" stroke="#000000" points="489.8751,-205.973 493.375,-215.973 496.8751,-205.973 489.8751,-205.973"/>
</g>
<!-- RegisterFormComponent  -->
<g id="node24" class="node">
<title>RegisterFormComponent </title>
<polygon fill="#fb8072" stroke="#000000" points="388.8185,-252 227.1815,-252 227.1815,-216 388.8185,-216 388.8185,-252"/>
<text text-anchor="middle" x="308" y="-229.8" font-family="Times,serif" font-size="14.00" fill="#000000">RegisterFormComponent </text>
</g>
<!-- ComponentsModule&#45;&gt;RegisterFormComponent  -->
<g id="edge23" class="edge">
<title>ComponentsModule&#45;&gt;RegisterFormComponent </title>
<path fill="none" stroke="#000000" stroke-dasharray="5,2" d="M955.6229,-174C781.4444,-174 319.375,-174 319.375,-174 319.375,-174 319.375,-205.998 319.375,-205.998"/>
<polygon fill="#000000" stroke="#000000" points="315.8751,-205.998 319.375,-215.998 322.8751,-205.9981 315.8751,-205.998"/>
</g>
<!-- SendMessageBoxComponent  -->
<g id="node25" class="node">
<title>SendMessageBoxComponent </title>
<polygon fill="#fb8072" stroke="#000000" points="209.6439,-252 24.3561,-252 24.3561,-216 209.6439,-216 209.6439,-252"/>
<text text-anchor="middle" x="117" y="-229.8" font-family="Times,serif" font-size="14.00" fill="#000000">SendMessageBoxComponent </text>
</g>
<!-- ComponentsModule&#45;&gt;SendMessageBoxComponent  -->
<g id="edge24" class="edge">
<title>ComponentsModule&#45;&gt;SendMessageBoxComponent </title>
<path fill="none" stroke="#000000" stroke-dasharray="5,2" d="M955.8345,-171C750.4051,-171 129.875,-171 129.875,-171 129.875,-171 129.875,-205.7778 129.875,-205.7778"/>
<polygon fill="#000000" stroke="#000000" points="126.3751,-205.7778 129.875,-215.7778 133.3751,-205.7778 126.3751,-205.7778"/>
</g>
</g>
</svg>
