<?xml version="1.0" encoding="UTF-8" standalone="no"?>
<!DOCTYPE svg PUBLIC "-//W3C//DTD SVG 1.1//EN"
 "http://www.w3.org/Graphics/SVG/1.1/DTD/svg11.dtd">
<!-- Generated by graphviz version 2.40.1 (20161225.0304)
 -->
<!-- Title: dependencies Pages: 1 -->
<svg width="4310pt" height="284pt"
 viewBox="0.00 0.00 4310.00 284.00" xmlns="http://www.w3.org/2000/svg" xmlns:xlink="http://www.w3.org/1999/xlink">
<g id="graph0" class="graph" transform="scale(1 1) rotate(0) translate(4 280)">
<title>dependencies</title>
<polygon fill="#ffffff" stroke="transparent" points="-4,4 -4,-280 4306,-280 4306,4 -4,4"/>
<text text-anchor="start" x="2130.0091" y="-42.4" font-family="sans-serif" font-weight="bold" font-size="14.00" fill="#000000">Legend</text>
<polygon fill="#ffffb3" stroke="transparent" points="1917,-10 1917,-30 1937,-30 1937,-10 1917,-10"/>
<text text-anchor="start" x="1940.629" y="-15.4" font-family="sans-serif" font-size="14.00" fill="#000000"> &#160;Declarations</text>
<polygon fill="#8dd3c7" stroke="transparent" points="2030,-10 2030,-30 2050,-30 2050,-10 2030,-10"/>
<text text-anchor="start" x="2053.7251" y="-15.4" font-family="sans-serif" font-size="14.00" fill="#000000"> &#160;Module</text>
<polygon fill="#80b1d3" stroke="transparent" points="2116,-10 2116,-30 2136,-30 2136,-10 2116,-10"/>
<text text-anchor="start" x="2139.7812" y="-15.4" font-family="sans-serif" font-size="14.00" fill="#000000"> &#160;Bootstrap</text>
<polygon fill="#fdb462" stroke="transparent" points="2213,-10 2213,-30 2233,-30 2233,-10 2213,-10"/>
<text text-anchor="start" x="2236.6732" y="-15.4" font-family="sans-serif" font-size="14.00" fill="#000000"> &#160;Providers</text>
<polygon fill="#fb8072" stroke="transparent" points="2309,-10 2309,-30 2329,-30 2329,-10 2309,-10"/>
<text text-anchor="start" x="2332.7258" y="-15.4" font-family="sans-serif" font-size="14.00" fill="#000000"> &#160;Exports</text>
<g id="clust1" class="cluster">
<title>cluster_AppModule</title>
<polygon fill="none" stroke="#000000" stroke-dasharray="1,5" points="8,-70 8,-268 4294,-268 4294,-70 8,-70"/>
</g>
<g id="clust2" class="cluster">
<title>cluster_AppModule_declarations</title>
<polygon fill="none" stroke="#000000" points="330,-78 330,-130 4286,-130 4286,-78 330,-78"/>
</g>
<g id="clust27" class="cluster">
<title>cluster_AppModule_imports</title>
<polygon fill="none" stroke="#000000" points="158,-78 158,-130 322,-130 322,-78 158,-78"/>
</g>
<g id="clust29" class="cluster">
<title>cluster_AppModule_bootstrap</title>
<polygon fill="none" stroke="#000000" points="1918,-208 1918,-260 2042,-260 2042,-208 1918,-208"/>
</g>
<g id="clust30" class="cluster">
<title>cluster_AppModule_providers</title>
<polygon fill="none" stroke="#000000" points="16,-78 16,-130 150,-130 150,-78 16,-78"/>
</g>
<!-- AppComponent -->
<g id="node1" class="node">
<title>AppComponent</title>
<polygon fill="#ffffb3" stroke="#000000" points="4277.9399,-122 4172.0601,-122 4172.0601,-86 4277.9399,-86 4277.9399,-122"/>
<text text-anchor="middle" x="4225" y="-99.8" font-family="Times,serif" font-size="14.00" fill="#000000">AppComponent</text>
</g>
<!-- AppModule -->
<g id="node25" class="node">
<title>AppModule</title>
<polygon fill="#8dd3c7" stroke="#000000" points="2021.6571,-187 2018.6571,-191 1997.6571,-191 1994.6571,-187 1938.3429,-187 1938.3429,-151 2021.6571,-151 2021.6571,-187"/>
<text text-anchor="middle" x="1980" y="-164.8" font-family="Times,serif" font-size="14.00" fill="#000000">AppModule</text>
</g>
<!-- AppComponent&#45;&gt;AppModule -->
<g id="edge1" class="edge">
<title>AppComponent&#45;&gt;AppModule</title>
<path fill="none" stroke="#000000" d="M4225,-122.3802C4225,-146.2785 4225,-185 4225,-185 4225,-185 2031.857,-185 2031.857,-185"/>
<polygon fill="#000000" stroke="#000000" points="2031.8571,-181.5001 2021.857,-185 2031.857,-188.5001 2031.8571,-181.5001"/>
</g>
<!-- CompareValidatorDirective -->
<g id="node2" class="node">
<title>CompareValidatorDirective</title>
<polygon fill="#ffffb3" stroke="#000000" points="4154.2682,-122 3981.7318,-122 3981.7318,-86 4154.2682,-86 4154.2682,-122"/>
<text text-anchor="middle" x="4068" y="-99.8" font-family="Times,serif" font-size="14.00" fill="#000000">CompareValidatorDirective</text>
</g>
<!-- CompareValidatorDirective&#45;&gt;AppModule -->
<g id="edge2" class="edge">
<title>CompareValidatorDirective&#45;&gt;AppModule</title>
<path fill="none" stroke="#000000" d="M4068,-122.0908C4068,-145.1328 4068,-182 4068,-182 4068,-182 2031.7086,-182 2031.7086,-182"/>
<polygon fill="#000000" stroke="#000000" points="2031.7086,-178.5001 2021.7086,-182 2031.7086,-185.5001 2031.7086,-178.5001"/>
</g>
<!-- DetailsecretaryreportingComponent -->
<g id="node3" class="node">
<title>DetailsecretaryreportingComponent</title>
<polygon fill="#ffffb3" stroke="#000000" points="3963.8721,-122 3746.1279,-122 3746.1279,-86 3963.8721,-86 3963.8721,-122"/>
<text text-anchor="middle" x="3855" y="-99.8" font-family="Times,serif" font-size="14.00" fill="#000000">DetailsecretaryreportingComponent</text>
</g>
<!-- DetailsecretaryreportingComponent&#45;&gt;AppModule -->
<g id="edge3" class="edge">
<title>DetailsecretaryreportingComponent&#45;&gt;AppModule</title>
<path fill="none" stroke="#000000" d="M3855,-122.0109C3855,-144.4852 3855,-180 3855,-180 3855,-180 2031.7909,-180 2031.7909,-180"/>
<polygon fill="#000000" stroke="#000000" points="2031.791,-176.5001 2021.7909,-180 2031.7909,-183.5001 2031.791,-176.5001"/>
</g>
<!-- DidacticcalendarComponent -->
<g id="node4" class="node">
<title>DidacticcalendarComponent</title>
<polygon fill="#ffffb3" stroke="#000000" points="3728.1643,-122 3551.8357,-122 3551.8357,-86 3728.1643,-86 3728.1643,-122"/>
<text text-anchor="middle" x="3640" y="-99.8" font-family="Times,serif" font-size="14.00" fill="#000000">DidacticcalendarComponent</text>
</g>
<!-- DidacticcalendarComponent&#45;&gt;AppModule -->
<g id="edge4" class="edge">
<title>DidacticcalendarComponent&#45;&gt;AppModule</title>
<path fill="none" stroke="#000000" d="M3640,-122.0449C3640,-143.6623 3640,-177 3640,-177 3640,-177 2031.8642,-177 2031.8642,-177"/>
<polygon fill="#000000" stroke="#000000" points="2031.8642,-173.5001 2021.8642,-177 2031.8641,-180.5001 2031.8642,-173.5001"/>
</g>
<!-- ExceptionGetDataComponent -->
<g id="node5" class="node">
<title>ExceptionGetDataComponent</title>
<polygon fill="#ffffb3" stroke="#000000" points="3534.2338,-122 3349.7662,-122 3349.7662,-86 3534.2338,-86 3534.2338,-122"/>
<text text-anchor="middle" x="3442" y="-99.8" font-family="Times,serif" font-size="14.00" fill="#000000">ExceptionGetDataComponent</text>
</g>
<!-- ExceptionGetDataComponent&#45;&gt;AppModule -->
<g id="edge5" class="edge">
<title>ExceptionGetDataComponent&#45;&gt;AppModule</title>
<path fill="none" stroke="#000000" d="M3442,-122.2843C3442,-143.3211 3442,-175 3442,-175 3442,-175 2031.7881,-175 2031.7881,-175"/>
<polygon fill="#000000" stroke="#000000" points="2031.7882,-171.5001 2021.7881,-175 2031.7881,-178.5001 2031.7882,-171.5001"/>
</g>
<!-- FooterComponent -->
<g id="node6" class="node">
<title>FooterComponent</title>
<polygon fill="#ffffb3" stroke="#000000" points="3331.8809,-122 3214.1191,-122 3214.1191,-86 3331.8809,-86 3331.8809,-122"/>
<text text-anchor="middle" x="3273" y="-99.8" font-family="Times,serif" font-size="14.00" fill="#000000">FooterComponent</text>
</g>
<!-- FooterComponent&#45;&gt;AppModule -->
<g id="edge6" class="edge">
<title>FooterComponent&#45;&gt;AppModule</title>
<path fill="none" stroke="#000000" d="M3273,-122.2228C3273,-142.3652 3273,-172 3273,-172 3273,-172 2031.9199,-172 2031.9199,-172"/>
<polygon fill="#000000" stroke="#000000" points="2031.92,-168.5001 2021.9199,-172 2031.9199,-175.5001 2031.92,-168.5001"/>
</g>
<!-- HeaderComponent -->
<g id="node7" class="node">
<title>HeaderComponent</title>
<polygon fill="#ffffb3" stroke="#000000" points="3195.7437,-122 3074.2563,-122 3074.2563,-86 3195.7437,-86 3195.7437,-122"/>
<text text-anchor="middle" x="3135" y="-99.8" font-family="Times,serif" font-size="14.00" fill="#000000">HeaderComponent</text>
</g>
<!-- HeaderComponent&#45;&gt;AppModule -->
<g id="edge7" class="edge">
<title>HeaderComponent&#45;&gt;AppModule</title>
<path fill="none" stroke="#000000" d="M3135,-122.1061C3135,-141.3391 3135,-169 3135,-169 3135,-169 2031.7894,-169 2031.7894,-169"/>
<polygon fill="#000000" stroke="#000000" points="2031.7894,-165.5001 2021.7894,-169 2031.7894,-172.5001 2031.7894,-165.5001"/>
</g>
<!-- HomeComponent -->
<g id="node8" class="node">
<title>HomeComponent</title>
<polygon fill="#ffffb3" stroke="#000000" points="3055.5451,-122 2940.4549,-122 2940.4549,-86 3055.5451,-86 3055.5451,-122"/>
<text text-anchor="middle" x="2998" y="-99.8" font-family="Times,serif" font-size="14.00" fill="#000000">HomeComponent</text>
</g>
<!-- HomeComponent&#45;&gt;AppModule -->
<g id="edge8" class="edge">
<title>HomeComponent&#45;&gt;AppModule</title>
<path fill="none" stroke="#000000" d="M2998,-122.2222C2998,-140.8285 2998,-167 2998,-167 2998,-167 2031.8047,-167 2031.8047,-167"/>
<polygon fill="#000000" stroke="#000000" points="2031.8047,-163.5001 2021.8047,-167 2031.8046,-170.5001 2031.8047,-163.5001"/>
</g>
<!-- InsertactivityComponent -->
<g id="node9" class="node">
<title>InsertactivityComponent</title>
<polygon fill="#ffffb3" stroke="#000000" points="2922.6951,-122 2767.3049,-122 2767.3049,-86 2922.6951,-86 2922.6951,-122"/>
<text text-anchor="middle" x="2845" y="-99.8" font-family="Times,serif" font-size="14.00" fill="#000000">InsertactivityComponent</text>
</g>
<!-- InsertactivityComponent&#45;&gt;AppModule -->
<g id="edge9" class="edge">
<title>InsertactivityComponent&#45;&gt;AppModule</title>
<path fill="none" stroke="#000000" d="M2845,-122.002C2845,-139.6754 2845,-164 2845,-164 2845,-164 2031.7207,-164 2031.7207,-164"/>
<polygon fill="#000000" stroke="#000000" points="2031.7208,-160.5001 2021.7207,-164 2031.7207,-167.5001 2031.7208,-160.5001"/>
</g>
<!-- InsertclassroomComponent -->
<g id="node10" class="node">
<title>InsertclassroomComponent</title>
<polygon fill="#ffffb3" stroke="#000000" points="2748.9636,-122 2579.0364,-122 2579.0364,-86 2748.9636,-86 2748.9636,-122"/>
<text text-anchor="middle" x="2664" y="-99.8" font-family="Times,serif" font-size="14.00" fill="#000000">InsertclassroomComponent</text>
</g>
<!-- InsertclassroomComponent&#45;&gt;AppModule -->
<g id="edge10" class="edge">
<title>InsertclassroomComponent&#45;&gt;AppModule</title>
<path fill="none" stroke="#000000" d="M2664,-122.0336C2664,-139.0597 2664,-162 2664,-162 2664,-162 2031.7576,-162 2031.7576,-162"/>
<polygon fill="#000000" stroke="#000000" points="2031.7577,-158.5001 2021.7576,-162 2031.7576,-165.5001 2031.7577,-158.5001"/>
</g>
<!-- InsertstudycourseComponent -->
<g id="node11" class="node">
<title>InsertstudycourseComponent</title>
<polygon fill="#ffffb3" stroke="#000000" points="2561.073,-122 2380.927,-122 2380.927,-86 2561.073,-86 2561.073,-122"/>
<text text-anchor="middle" x="2471" y="-99.8" font-family="Times,serif" font-size="14.00" fill="#000000">InsertstudycourseComponent</text>
</g>
<!-- InsertstudycourseComponent&#45;&gt;AppModule -->
<g id="edge11" class="edge">
<title>InsertstudycourseComponent&#45;&gt;AppModule</title>
<path fill="none" stroke="#000000" d="M2471,-122.0091C2471,-138.0494 2471,-159 2471,-159 2471,-159 2031.8624,-159 2031.8624,-159"/>
<polygon fill="#000000" stroke="#000000" points="2031.8624,-155.5001 2021.8624,-159 2031.8623,-162.5001 2031.8624,-155.5001"/>
</g>
<!-- InsertsubjectComponent -->
<g id="node12" class="node">
<title>InsertsubjectComponent</title>
<polygon fill="#ffffb3" stroke="#000000" points="2363.3585,-122 2210.6415,-122 2210.6415,-86 2363.3585,-86 2363.3585,-122"/>
<text text-anchor="middle" x="2287" y="-99.8" font-family="Times,serif" font-size="14.00" fill="#000000">InsertsubjectComponent</text>
</g>
<!-- InsertsubjectComponent&#45;&gt;AppModule -->
<g id="edge12" class="edge">
<title>InsertsubjectComponent&#45;&gt;AppModule</title>
<path fill="none" stroke="#000000" d="M2287,-122.2396C2287,-137.5706 2287,-157 2287,-157 2287,-157 2031.7229,-157 2031.7229,-157"/>
<polygon fill="#000000" stroke="#000000" points="2031.7229,-153.5001 2021.7229,-157 2031.7229,-160.5001 2031.7229,-153.5001"/>
</g>
<!-- InsertuserComponent -->
<g id="node13" class="node">
<title>InsertuserComponent</title>
<polygon fill="#ffffb3" stroke="#000000" points="2192.024,-122 2055.976,-122 2055.976,-86 2192.024,-86 2192.024,-122"/>
<text text-anchor="middle" x="2124" y="-99.8" font-family="Times,serif" font-size="14.00" fill="#000000">InsertuserComponent</text>
</g>
<!-- InsertuserComponent&#45;&gt;AppModule -->
<g id="edge13" class="edge">
<title>InsertuserComponent&#45;&gt;AppModule</title>
<path fill="none" stroke="#000000" d="M2124,-122.0511C2124,-136.373 2124,-154 2124,-154 2124,-154 2032.0379,-154 2032.0379,-154"/>
<polygon fill="#000000" stroke="#000000" points="2032.0379,-150.5001 2022.0379,-154 2032.0378,-157.5001 2032.0379,-150.5001"/>
</g>
<!-- LoginComponent -->
<g id="node14" class="node">
<title>LoginComponent</title>
<polygon fill="#ffffb3" stroke="#000000" points="2037.2758,-122 1922.7242,-122 1922.7242,-86 2037.2758,-86 2037.2758,-122"/>
<text text-anchor="middle" x="1980" y="-99.8" font-family="Times,serif" font-size="14.00" fill="#000000">LoginComponent</text>
</g>
<!-- LoginComponent&#45;&gt;AppModule -->
<g id="edge14" class="edge">
<title>LoginComponent&#45;&gt;AppModule</title>
<path fill="none" stroke="#000000" d="M1980,-122.1061C1980,-122.1061 1980,-140.991 1980,-140.991"/>
<polygon fill="#000000" stroke="#000000" points="1976.5001,-140.9909 1980,-150.991 1983.5001,-140.991 1976.5001,-140.9909"/>
</g>
<!-- NavbarComponent -->
<g id="node15" class="node">
<title>NavbarComponent</title>
<polygon fill="#ffffb3" stroke="#000000" points="1904.0297,-122 1781.9703,-122 1781.9703,-86 1904.0297,-86 1904.0297,-122"/>
<text text-anchor="middle" x="1843" y="-99.8" font-family="Times,serif" font-size="14.00" fill="#000000">NavbarComponent</text>
</g>
<!-- NavbarComponent&#45;&gt;AppModule -->
<g id="edge15" class="edge">
<title>NavbarComponent&#45;&gt;AppModule</title>
<path fill="none" stroke="#000000" d="M1843,-122.0511C1843,-136.373 1843,-154 1843,-154 1843,-154 1928.1511,-154 1928.1511,-154"/>
<polygon fill="#000000" stroke="#000000" points="1928.1511,-157.5001 1938.1511,-154 1928.151,-150.5001 1928.1511,-157.5001"/>
</g>
<!-- ProfessorComponent -->
<g id="node16" class="node">
<title>ProfessorComponent</title>
<polygon fill="#ffffb3" stroke="#000000" points="1764.2008,-122 1629.7992,-122 1629.7992,-86 1764.2008,-86 1764.2008,-122"/>
<text text-anchor="middle" x="1697" y="-99.8" font-family="Times,serif" font-size="14.00" fill="#000000">ProfessorComponent</text>
</g>
<!-- ProfessorComponent&#45;&gt;AppModule -->
<g id="edge16" class="edge">
<title>ProfessorComponent&#45;&gt;AppModule</title>
<path fill="none" stroke="#000000" d="M1697,-122.2396C1697,-137.5706 1697,-157 1697,-157 1697,-157 1928.2424,-157 1928.2424,-157"/>
<polygon fill="#000000" stroke="#000000" points="1928.2424,-160.5001 1938.2424,-157 1928.2423,-153.5001 1928.2424,-160.5001"/>
</g>
<!-- ProfreportingComponent -->
<g id="node17" class="node">
<title>ProfreportingComponent</title>
<polygon fill="#ffffb3" stroke="#000000" points="1612.2534,-122 1455.7466,-122 1455.7466,-86 1612.2534,-86 1612.2534,-122"/>
<text text-anchor="middle" x="1534" y="-99.8" font-family="Times,serif" font-size="14.00" fill="#000000">ProfreportingComponent</text>
</g>
<!-- ProfreportingComponent&#45;&gt;AppModule -->
<g id="edge17" class="edge">
<title>ProfreportingComponent&#45;&gt;AppModule</title>
<path fill="none" stroke="#000000" d="M1507.8745,-122.0336C1507.8745,-139.0597 1507.8745,-162 1507.8745,-162 1507.8745,-162 1928.102,-162 1928.102,-162"/>
<polygon fill="#000000" stroke="#000000" points="1928.102,-165.5001 1938.102,-162 1928.102,-158.5001 1928.102,-165.5001"/>
</g>
<!-- ProfreportingComponent&#45;&gt;AppModule -->
<g id="edge18" class="edge">
<title>ProfreportingComponent&#45;&gt;AppModule</title>
<path fill="none" stroke="#000000" d="M1560.1255,-122.0091C1560.1255,-138.0494 1560.1255,-159 1560.1255,-159 1560.1255,-159 1928.2058,-159 1928.2058,-159"/>
<polygon fill="#000000" stroke="#000000" points="1928.2058,-162.5001 1938.2058,-159 1928.2058,-155.5001 1928.2058,-162.5001"/>
</g>
<!-- SecretaryComponent -->
<g id="node18" class="node">
<title>SecretaryComponent</title>
<polygon fill="#ffffb3" stroke="#000000" points="1438.1853,-122 1303.8147,-122 1303.8147,-86 1438.1853,-86 1438.1853,-122"/>
<text text-anchor="middle" x="1371" y="-99.8" font-family="Times,serif" font-size="14.00" fill="#000000">SecretaryComponent</text>
</g>
<!-- SecretaryComponent&#45;&gt;AppModule -->
<g id="edge19" class="edge">
<title>SecretaryComponent&#45;&gt;AppModule</title>
<path fill="none" stroke="#000000" d="M1371,-122.002C1371,-139.6754 1371,-164 1371,-164 1371,-164 1928.141,-164 1928.141,-164"/>
<polygon fill="#000000" stroke="#000000" points="1928.141,-167.5001 1938.141,-164 1928.1409,-160.5001 1928.141,-167.5001"/>
</g>
<!-- SecretaryreportingComponent -->
<g id="node19" class="node">
<title>SecretaryreportingComponent</title>
<polygon fill="#ffffb3" stroke="#000000" points="1285.5029,-122 1100.4971,-122 1100.4971,-86 1285.5029,-86 1285.5029,-122"/>
<text text-anchor="middle" x="1193" y="-99.8" font-family="Times,serif" font-size="14.00" fill="#000000">SecretaryreportingComponent</text>
</g>
<!-- SecretaryreportingComponent&#45;&gt;AppModule -->
<g id="edge20" class="edge">
<title>SecretaryreportingComponent&#45;&gt;AppModule</title>
<path fill="none" stroke="#000000" d="M1193,-122.2222C1193,-140.8285 1193,-167 1193,-167 1193,-167 1928.2431,-167 1928.2431,-167"/>
<polygon fill="#000000" stroke="#000000" points="1928.2432,-170.5001 1938.2431,-167 1928.2431,-163.5001 1928.2432,-170.5001"/>
</g>
<!-- SignupComponent -->
<g id="node20" class="node">
<title>SignupComponent</title>
<polygon fill="#ffffb3" stroke="#000000" points="1082.5056,-122 961.4944,-122 961.4944,-86 1082.5056,-86 1082.5056,-122"/>
<text text-anchor="middle" x="1022" y="-99.8" font-family="Times,serif" font-size="14.00" fill="#000000">SignupComponent</text>
</g>
<!-- SignupComponent&#45;&gt;AppModule -->
<g id="edge21" class="edge">
<title>SignupComponent&#45;&gt;AppModule</title>
<path fill="none" stroke="#000000" d="M1022,-122.1061C1022,-141.3391 1022,-169 1022,-169 1022,-169 1928.2199,-169 1928.2199,-169"/>
<polygon fill="#000000" stroke="#000000" points="1928.22,-172.5001 1938.2199,-169 1928.2199,-165.5001 1928.22,-172.5001"/>
</g>
<!-- StudentComponent -->
<g id="node21" class="node">
<title>StudentComponent</title>
<polygon fill="#ffffb3" stroke="#000000" points="943.1108,-122 818.8892,-122 818.8892,-86 943.1108,-86 943.1108,-122"/>
<text text-anchor="middle" x="881" y="-99.8" font-family="Times,serif" font-size="14.00" fill="#000000">StudentComponent</text>
</g>
<!-- StudentComponent&#45;&gt;AppModule -->
<g id="edge22" class="edge">
<title>StudentComponent&#45;&gt;AppModule</title>
<path fill="none" stroke="#000000" d="M881,-122.2228C881,-142.3652 881,-172 881,-172 881,-172 1928.2599,-172 1928.2599,-172"/>
<polygon fill="#000000" stroke="#000000" points="1928.2599,-175.5001 1938.2599,-172 1928.2599,-168.5001 1928.2599,-175.5001"/>
</g>
<!-- SuccessfulComponent -->
<g id="node22" class="node">
<title>SuccessfulComponent</title>
<polygon fill="#ffffb3" stroke="#000000" points="800.6993,-122 659.3007,-122 659.3007,-86 800.6993,-86 800.6993,-122"/>
<text text-anchor="middle" x="730" y="-99.8" font-family="Times,serif" font-size="14.00" fill="#000000">SuccessfulComponent</text>
</g>
<!-- SuccessfulComponent&#45;&gt;AppModule -->
<g id="edge23" class="edge">
<title>SuccessfulComponent&#45;&gt;AppModule</title>
<path fill="none" stroke="#000000" d="M730,-122.2843C730,-143.3211 730,-175 730,-175 730,-175 1928.0528,-175 1928.0528,-175"/>
<polygon fill="#000000" stroke="#000000" points="1928.0529,-178.5001 1938.0528,-175 1928.0528,-171.5001 1928.0529,-178.5001"/>
</g>
<!-- UploadComponent -->
<g id="node23" class="node">
<title>UploadComponent</title>
<polygon fill="#ffffb3" stroke="#000000" points="641.045,-122 518.955,-122 518.955,-86 641.045,-86 641.045,-122"/>
<text text-anchor="middle" x="580" y="-99.8" font-family="Times,serif" font-size="14.00" fill="#000000">UploadComponent</text>
</g>
<!-- UploadComponent&#45;&gt;AppModule -->
<g id="edge24" class="edge">
<title>UploadComponent&#45;&gt;AppModule</title>
<path fill="none" stroke="#000000" d="M580,-122.0449C580,-143.6623 580,-177 580,-177 580,-177 1928.1008,-177 1928.1008,-177"/>
<polygon fill="#000000" stroke="#000000" points="1928.1008,-180.5001 1938.1008,-177 1928.1007,-173.5001 1928.1008,-180.5001"/>
</g>
<!-- ViewreportingComponent -->
<g id="node24" class="node">
<title>ViewreportingComponent</title>
<polygon fill="#ffffb3" stroke="#000000" points="500.4678,-122 337.5322,-122 337.5322,-86 500.4678,-86 500.4678,-122"/>
<text text-anchor="middle" x="419" y="-99.8" font-family="Times,serif" font-size="14.00" fill="#000000">ViewreportingComponent</text>
</g>
<!-- ViewreportingComponent&#45;&gt;AppModule -->
<g id="edge25" class="edge">
<title>ViewreportingComponent&#45;&gt;AppModule</title>
<path fill="none" stroke="#000000" d="M419,-122.0109C419,-144.4852 419,-180 419,-180 419,-180 1928.247,-180 1928.247,-180"/>
<polygon fill="#000000" stroke="#000000" points="1928.2471,-183.5001 1938.247,-180 1928.247,-176.5001 1928.2471,-183.5001"/>
</g>
<!-- AppComponent  -->
<g id="node27" class="node">
<title>AppComponent </title>
<polygon fill="#80b1d3" stroke="#000000" points="2034.439,-252 1925.561,-252 1925.561,-216 2034.439,-216 2034.439,-252"/>
<text text-anchor="middle" x="1980" y="-229.8" font-family="Times,serif" font-size="14.00" fill="#000000">AppComponent </text>
</g>
<!-- AppModule&#45;&gt;AppComponent  -->
<g id="edge27" class="edge">
<title>AppModule&#45;&gt;AppComponent </title>
<path fill="none" stroke="#000000" stroke-dasharray="1,5" d="M1980,-187.1061C1980,-187.1061 1980,-205.991 1980,-205.991"/>
<polygon fill="#000000" stroke="#000000" points="1976.5001,-205.9909 1980,-215.991 1983.5001,-205.991 1976.5001,-205.9909"/>
</g>
<!-- RoutingModuleModule -->
<g id="node26" class="node">
<title>RoutingModuleModule</title>
<polygon fill="#8dd3c7" stroke="#000000" points="314.2176,-122 311.2176,-126 290.2176,-126 287.2176,-122 165.7824,-122 165.7824,-86 314.2176,-86 314.2176,-122"/>
<text text-anchor="middle" x="240" y="-99.8" font-family="Times,serif" font-size="14.00" fill="#000000">RoutingModuleModule</text>
</g>
<!-- RoutingModuleModule&#45;&gt;AppModule -->
<g id="edge26" class="edge">
<title>RoutingModuleModule&#45;&gt;AppModule</title>
<path fill="none" stroke="#000000" d="M240,-122.0908C240,-145.1328 240,-182 240,-182 240,-182 1928.2787,-182 1928.2787,-182"/>
<polygon fill="#000000" stroke="#000000" points="1928.2788,-185.5001 1938.2787,-182 1928.2787,-178.5001 1928.2788,-185.5001"/>
</g>
<!-- AuthService -->
<g id="node28" class="node">
<title>AuthService</title>
<ellipse fill="#fdb462" stroke="#000000" cx="83" cy="-104" rx="59.1083" ry="18"/>
<text text-anchor="middle" x="83" y="-99.8" font-family="Times,serif" font-size="14.00" fill="#000000">AuthService</text>
</g>
<!-- AuthService&#45;&gt;AppModule -->
<g id="edge28" class="edge">
<title>AuthService&#45;&gt;AppModule</title>
<path fill="none" stroke="#000000" d="M83,-122.3802C83,-146.2785 83,-185 83,-185 83,-185 1928.1676,-185 1928.1676,-185"/>
<polygon fill="#000000" stroke="#000000" points="1928.1676,-188.5001 1938.1676,-185 1928.1676,-181.5001 1928.1676,-188.5001"/>
</g>
</g>
</svg>
