<?xml version="1.0" encoding="UTF-8" standalone="no"?>
<!DOCTYPE svg PUBLIC "-//W3C//DTD SVG 1.1//EN"
 "http://www.w3.org/Graphics/SVG/1.1/DTD/svg11.dtd">
<!-- Generated by graphviz version 2.40.1 (20161225.0304)
 -->
<!-- Title: dependencies Pages: 1 -->
<svg width="1071pt" height="284pt"
 viewBox="0.00 0.00 1071.00 284.00" xmlns="http://www.w3.org/2000/svg" xmlns:xlink="http://www.w3.org/1999/xlink">
<g id="graph0" class="graph" transform="scale(1 1) rotate(0) translate(4 280)">
<title>dependencies</title>
<polygon fill="#ffffff" stroke="transparent" points="-4,4 -4,-280 1067,-280 1067,4 -4,4"/>
<text text-anchor="start" x="510.5091" y="-42.4" font-family="sans-serif" font-weight="bold" font-size="14.00" fill="#000000">Legend</text>
<polygon fill="#ffffb3" stroke="transparent" points="297.5,-10 297.5,-30 317.5,-30 317.5,-10 297.5,-10"/>
<text text-anchor="start" x="321.129" y="-15.4" font-family="sans-serif" font-size="14.00" fill="#000000"> &#160;Declarations</text>
<polygon fill="#8dd3c7" stroke="transparent" points="410.5,-10 410.5,-30 430.5,-30 430.5,-10 410.5,-10"/>
<text text-anchor="start" x="434.2251" y="-15.4" font-family="sans-serif" font-size="14.00" fill="#000000"> &#160;Module</text>
<polygon fill="#80b1d3" stroke="transparent" points="496.5,-10 496.5,-30 516.5,-30 516.5,-10 496.5,-10"/>
<text text-anchor="start" x="520.2812" y="-15.4" font-family="sans-serif" font-size="14.00" fill="#000000"> &#160;Bootstrap</text>
<polygon fill="#fdb462" stroke="transparent" points="593.5,-10 593.5,-30 613.5,-30 613.5,-10 593.5,-10"/>
<text text-anchor="start" x="617.1732" y="-15.4" font-family="sans-serif" font-size="14.00" fill="#000000"> &#160;Providers</text>
<polygon fill="#fb8072" stroke="transparent" points="689.5,-10 689.5,-30 709.5,-30 709.5,-10 689.5,-10"/>
<text text-anchor="start" x="713.2258" y="-15.4" font-family="sans-serif" font-size="14.00" fill="#000000"> &#160;Exports</text>
<g id="clust1" class="cluster">
<title>cluster_AppModule</title>
<polygon fill="none" stroke="#000000" stroke-dasharray="1,5" points="8,-70 8,-268 1055,-268 1055,-70 8,-70"/>
</g>
<g id="clust2" class="cluster">
<title>cluster_AppModule_declarations</title>
<polygon fill="none" stroke="#000000" points="971,-78 971,-130 1047,-130 1047,-78 971,-78"/>
</g>
<g id="clust6" class="cluster">
<title>cluster_AppModule_bootstrap</title>
<polygon fill="none" stroke="#000000" points="568,-208 568,-260 656,-260 656,-208 568,-208"/>
</g>
<g id="clust7" class="cluster">
<title>cluster_AppModule_providers</title>
<polygon fill="none" stroke="#000000" points="16,-78 16,-130 963,-130 963,-78 16,-78"/>
</g>
<!-- MyApp -->
<g id="node1" class="node">
<title>MyApp</title>
<polygon fill="#ffffb3" stroke="#000000" points="1038.5529,-122 979.4471,-122 979.4471,-86 1038.5529,-86 1038.5529,-122"/>
<text text-anchor="middle" x="1009" y="-99.8" font-family="Times,serif" font-size="14.00" fill="#000000">MyApp</text>
</g>
<!-- AppModule -->
<g id="node2" class="node">
<title>AppModule</title>
<polygon fill="#8dd3c7" stroke="#000000" points="653.6571,-187 650.6571,-191 629.6571,-191 626.6571,-187 570.3429,-187 570.3429,-151 653.6571,-151 653.6571,-187"/>
<text text-anchor="middle" x="612" y="-164.8" font-family="Times,serif" font-size="14.00" fill="#000000">AppModule</text>
</g>
<!-- MyApp&#45;&gt;AppModule -->
<g id="edge1" class="edge">
<title>MyApp&#45;&gt;AppModule</title>
<path fill="none" stroke="#000000" d="M1009,-122.2921C1009,-144.2057 1009,-178 1009,-178 1009,-178 663.7356,-178 663.7356,-178"/>
<polygon fill="#000000" stroke="#000000" points="663.7356,-174.5001 653.7356,-178 663.7356,-181.5001 663.7356,-174.5001"/>
</g>
<!-- IonicApp  -->
<g id="node3" class="node">
<title>IonicApp </title>
<polygon fill="#80b1d3" stroke="#000000" points="648.3734,-252 575.6266,-252 575.6266,-216 648.3734,-216 648.3734,-252"/>
<text text-anchor="middle" x="612" y="-229.8" font-family="Times,serif" font-size="14.00" fill="#000000">IonicApp </text>
</g>
<!-- AppModule&#45;&gt;IonicApp  -->
<g id="edge2" class="edge">
<title>AppModule&#45;&gt;IonicApp </title>
<path fill="none" stroke="#000000" stroke-dasharray="1,5" d="M612,-187.1061C612,-187.1061 612,-205.991 612,-205.991"/>
<polygon fill="#000000" stroke="#000000" points="608.5001,-205.9909 612,-215.991 615.5001,-205.991 608.5001,-205.9909"/>
</g>
<!-- AuthProvider -->
<g id="node4" class="node">
<title>AuthProvider</title>
<ellipse fill="#fdb462" stroke="#000000" cx="891" cy="-104" rx="63.7045" ry="18"/>
<text text-anchor="middle" x="891" y="-99.8" font-family="Times,serif" font-size="14.00" fill="#000000">AuthProvider</text>
</g>
<!-- AuthProvider&#45;&gt;AppModule -->
<g id="edge3" class="edge">
<title>AuthProvider&#45;&gt;AppModule</title>
<path fill="none" stroke="#000000" d="M891,-122.1061C891,-141.3391 891,-169 891,-169 891,-169 663.7691,-169 663.7691,-169"/>
<polygon fill="#000000" stroke="#000000" points="663.7692,-165.5001 653.7691,-169 663.7691,-172.5001 663.7692,-165.5001"/>
</g>
<!-- ChatService -->
<g id="node5" class="node">
<title>ChatService</title>
<ellipse fill="#fdb462" stroke="#000000" cx="751" cy="-104" rx="58.4628" ry="18"/>
<text text-anchor="middle" x="751" y="-99.8" font-family="Times,serif" font-size="14.00" fill="#000000">ChatService</text>
</g>
<!-- ChatService&#45;&gt;AppModule -->
<g id="edge4" class="edge">
<title>ChatService&#45;&gt;AppModule</title>
<path fill="none" stroke="#000000" d="M751,-122.027C751,-138.3976 751,-160 751,-160 751,-160 663.7046,-160 663.7046,-160"/>
<polygon fill="#000000" stroke="#000000" points="663.7046,-156.5001 653.7046,-160 663.7045,-163.5001 663.7046,-156.5001"/>
</g>
<!-- DataProvider -->
<g id="node6" class="node">
<title>DataProvider</title>
<ellipse fill="#fdb462" stroke="#000000" cx="612" cy="-104" rx="62.5373" ry="18"/>
<text text-anchor="middle" x="612" y="-99.8" font-family="Times,serif" font-size="14.00" fill="#000000">DataProvider</text>
</g>
<!-- DataProvider&#45;&gt;AppModule -->
<g id="edge5" class="edge">
<title>DataProvider&#45;&gt;AppModule</title>
<path fill="none" stroke="#000000" d="M612,-122.1061C612,-122.1061 612,-140.991 612,-140.991"/>
<polygon fill="#000000" stroke="#000000" points="608.5001,-140.9909 612,-150.991 615.5001,-140.991 608.5001,-140.9909"/>
</g>
<!-- ProfessorProvider -->
<g id="node7" class="node">
<title>ProfessorProvider</title>
<ellipse fill="#fdb462" stroke="#000000" cx="451" cy="-104" rx="80.5162" ry="18"/>
<text text-anchor="middle" x="451" y="-99.8" font-family="Times,serif" font-size="14.00" fill="#000000">ProfessorProvider</text>
</g>
<!-- ProfessorProvider&#45;&gt;AppModule -->
<g id="edge6" class="edge">
<title>ProfessorProvider&#45;&gt;AppModule</title>
<path fill="none" stroke="#000000" d="M451,-122.027C451,-138.3976 451,-160 451,-160 451,-160 560.1194,-160 560.1194,-160"/>
<polygon fill="#000000" stroke="#000000" points="560.1195,-163.5001 570.1194,-160 560.1194,-156.5001 560.1195,-163.5001"/>
</g>
<!-- SecretaryProvider -->
<g id="node8" class="node">
<title>SecretaryProvider</title>
<ellipse fill="#fdb462" stroke="#000000" cx="271" cy="-104" rx="80.9949" ry="18"/>
<text text-anchor="middle" x="271" y="-99.8" font-family="Times,serif" font-size="14.00" fill="#000000">SecretaryProvider</text>
</g>
<!-- SecretaryProvider&#45;&gt;AppModule -->
<g id="edge7" class="edge">
<title>SecretaryProvider&#45;&gt;AppModule</title>
<path fill="none" stroke="#000000" d="M271,-122.1061C271,-141.3391 271,-169 271,-169 271,-169 560.1867,-169 560.1867,-169"/>
<polygon fill="#000000" stroke="#000000" points="560.1867,-172.5001 570.1867,-169 560.1867,-165.5001 560.1867,-172.5001"/>
</g>
<!-- StudentProvider -->
<g id="node9" class="node">
<title>StudentProvider</title>
<ellipse fill="#fdb462" stroke="#000000" cx="98" cy="-104" rx="73.5965" ry="18"/>
<text text-anchor="middle" x="98" y="-99.8" font-family="Times,serif" font-size="14.00" fill="#000000">StudentProvider</text>
</g>
<!-- StudentProvider&#45;&gt;AppModule -->
<g id="edge8" class="edge">
<title>StudentProvider&#45;&gt;AppModule</title>
<path fill="none" stroke="#000000" d="M98,-122.2921C98,-144.2057 98,-178 98,-178 98,-178 559.9372,-178 559.9372,-178"/>
<polygon fill="#000000" stroke="#000000" points="559.9373,-181.5001 569.9372,-178 559.9372,-174.5001 559.9373,-181.5001"/>
</g>
</g>
</svg>
